<svg xmlns="http://www.w3.org/2000/svg" width="1371" height="210.25" viewBox="0 0 1371 210.25">
  <path id="Path_1" data-name="Path 1" d="M58.25,21.75a76.938,76.938,0,0,1-27.625-5A49.392,49.392,0,0,1,9.25,1.5Q1-8.75,1-24,1-37.5,7-45.125A31.359,31.359,0,0,1,22-55.75a55.192,55.192,0,0,1,17.5-3,65.632,65.632,0,0,0-12.125,17.5A41.377,41.377,0,0,0,23.25-24,30.582,30.582,0,0,0,27.625-8.125a32.32,32.32,0,0,0,13.125,12Q49.5,8.5,62.5,8.5A65.259,65.259,0,0,0,84.375,4.75a42.377,42.377,0,0,0,17.5-11.25q6.875-7.5,6.875-18.75a27.418,27.418,0,0,0-5.875-17.625A60.638,60.638,0,0,0,87.75-56.125Q78.5-62,68.25-67.375A204.073,204.073,0,0,1,48.75-79,58.517,58.517,0,0,1,33.625-93.5q-5.875-8.25-5.875-19.75,0-10.25,5.125-21.875A79.164,79.164,0,0,1,47.5-157a74.1,74.1,0,0,1,23-16.625,69.378,69.378,0,0,1,30-6.375q17.25,0,24.25,7.25t7,19A66.932,66.932,0,0,1,128.5-134a140.556,140.556,0,0,1-7.875,20,172.59,172.59,0,0,1-8.875,16.25q-5.5-1.25-8.25-4.375a12.222,12.222,0,0,1-2.75-8.375,38.213,38.213,0,0,1,2.125-11.75q2.125-6.5,5-13.5t5-13.625A38.788,38.788,0,0,0,115-161a9.205,9.205,0,0,0-2.625-7q-2.625-2.5-10.625-2.5a46.6,46.6,0,0,0-22,5.25A63.647,63.647,0,0,0,62.375-152,63.347,63.347,0,0,0,51-135.125Q47-126.25,47-119a22.152,22.152,0,0,0,5.75,15.375A60.319,60.319,0,0,0,67.625-92q9.125,5.25,19.25,10.5a160.347,160.347,0,0,1,19.25,11.75A55.9,55.9,0,0,1,121-54.25q5.75,9,5.75,22a44.552,44.552,0,0,1-5.875,23A52.794,52.794,0,0,1,105,7.625a78.42,78.42,0,0,1-22.125,10.5A85.532,85.532,0,0,1,58.25,21.75Zm75,.25q1-10.75,7-15.625T155.75,0a131.633,131.633,0,0,1,20.5-1.5,173.268,173.268,0,0,0,8.625-22.875Q189-37.75,192.875-53t7.5-31.125Q204-100,207.25-114.875T213.5-142q3-12.25,5.75-20.25-12.75.25-22.625,1t-18.625,2q-8.75,1.25-18,3,2.75-12.5,15.75-18t39.75-5.5q13.25,0,27.5,1t26.25,2.25q12,1.25,18.75,2.25-8.5,8-16,9.875a54.728,54.728,0,0,1-13,1.875H244.375q-6.375,0-12.375.25-1.75,8.5-3.875,20.75t-4.75,26.25q-2.625,14-5.125,28t-5,26.125Q210.75-49,208.75-41A165.468,165.468,0,0,1,201-17.25Q196.5-6.5,190.75-1,204,0,217.5,1.5t29.75,2q-10,9.25-19,11.625A60.4,60.4,0,0,1,213.5,17.5q-16.75,0-27.875.125t-19.375.5Q158,18.5,150.375,19.5T133.25,22Zm256.5,8.25q-6,0-13.75-6.5a119.076,119.076,0,0,1-16.125-17,280.608,280.608,0,0,1-16.5-23.125Q335.25-29,328-41.75t-12.25-23q-6.75,23-12.875,45.375T291.25,22a25.192,25.192,0,0,1-13.625-4q-6.375-4-6.375-10.5A21.044,21.044,0,0,1,272.5,1q1.25-3.75,2.25-7.25Q282-28,287.75-45.125t10.875-31.5q5.125-14.375,10.5-28.5T321-134.75q6.5-15.5,15-35a84.817,84.817,0,0,0-17.125,5.25q-7.375,3.25-12,5.75t-6.375,2.5a8.134,8.134,0,0,1-3.75-1.625,18.138,18.138,0,0,1-4.375-4A7.121,7.121,0,0,1,290.5-166q7-2.75,16.375-6a170.784,170.784,0,0,1,20.625-5.625A112.269,112.269,0,0,1,350.75-180,108.7,108.7,0,0,1,374-177.375,80.238,80.238,0,0,1,396.25-169a47.735,47.735,0,0,1,16.5,15q6.25,9.25,6.25,22.25,0,11.75-5.25,20.375a47.719,47.719,0,0,1-14,14.625A83.545,83.545,0,0,1,380.5-87a149.044,149.044,0,0,1-21.25,5.875,178.509,178.509,0,0,1-19.875,2.875q-9.125.75-15.125,1,8,12.75,15.75,24.75t16.625,23.875A227.974,227.974,0,0,0,377.25-4.875,269.555,269.555,0,0,0,405,19.25q-1,5-6.125,8T389.75,30.25Zm-68.25-115a155.272,155.272,0,0,0,27.625-4.5A102.191,102.191,0,0,0,373.875-99a53.192,53.192,0,0,0,17.75-15.625Q398.25-124,398.25-136.75q0-13-6.5-20.375A36.487,36.487,0,0,0,375-167.75a76.38,76.38,0,0,0-21.5-3.5A332.7,332.7,0,0,0,337-131.875Q329-109.25,321.5-84.75ZM413,22q1-10.75,7-15.625T435.5,0A131.633,131.633,0,0,1,456-1.5a173.268,173.268,0,0,0,8.625-22.875q4.125-13.375,8-28.625t7.5-31.125Q483.75-100,487-114.875T493.25-142q3-12.25,5.75-20.25-12.75.25-22.625,1t-18.625,2q-8.75,1.25-18,3,2.75-12.5,15.75-18t39.75-5.5q13.25,0,27.5,1T549-176.5q12,1.25,18.75,2.25-8.5,8-16,9.875a54.728,54.728,0,0,1-13,1.875H524.125q-6.375,0-12.375.25-1.75,8.5-3.875,20.75t-4.75,26.25q-2.625,14-5.125,28t-5,26.125Q490.5-49,488.5-41a165.466,165.466,0,0,1-7.75,23.75Q476.25-6.5,470.5-1q13.25,1,26.75,2.5T527,3.5q-10,9.25-19,11.625A60.4,60.4,0,0,1,493.25,17.5q-16.75,0-27.875.125t-19.375.5q-8.25.375-15.875,1.375T413,22Zm186-.25a76.937,76.937,0,0,1-27.625-5A49.392,49.392,0,0,1,550,1.5Q541.75-8.75,541.75-24q0-13.5,6-21.125a31.359,31.359,0,0,1,15-10.625,55.192,55.192,0,0,1,17.5-3,65.633,65.633,0,0,0-12.125,17.5A41.377,41.377,0,0,0,564-24a30.582,30.582,0,0,0,4.375,15.875,32.32,32.32,0,0,0,13.125,12Q590.25,8.5,603.25,8.5a65.259,65.259,0,0,0,21.875-3.75,42.377,42.377,0,0,0,17.5-11.25Q649.5-14,649.5-25.25a27.418,27.418,0,0,0-5.875-17.625A60.638,60.638,0,0,0,628.5-56.125Q619.25-62,609-67.375A204.078,204.078,0,0,1,589.5-79a58.517,58.517,0,0,1-15.125-14.5q-5.875-8.25-5.875-19.75,0-10.25,5.125-21.875A79.165,79.165,0,0,1,588.25-157a74.1,74.1,0,0,1,23-16.625,69.378,69.378,0,0,1,30-6.375q17.25,0,24.25,7.25t7,19A66.931,66.931,0,0,1,669.25-134a140.562,140.562,0,0,1-7.875,20A172.59,172.59,0,0,1,652.5-97.75q-5.5-1.25-8.25-4.375a12.222,12.222,0,0,1-2.75-8.375,38.213,38.213,0,0,1,2.125-11.75q2.125-6.5,5-13.5t5-13.625A38.788,38.788,0,0,0,655.75-161a9.205,9.205,0,0,0-2.625-7q-2.625-2.5-10.625-2.5a46.6,46.6,0,0,0-22,5.25A63.647,63.647,0,0,0,603.125-152a63.347,63.347,0,0,0-11.375,16.875q-4,8.875-4,16.125a22.152,22.152,0,0,0,5.75,15.375A60.319,60.319,0,0,0,608.375-92q9.125,5.25,19.25,10.5a160.345,160.345,0,0,1,19.25,11.75,55.9,55.9,0,0,1,14.875,15.5q5.75,9,5.75,22a44.552,44.552,0,0,1-5.875,23A52.794,52.794,0,0,1,645.75,7.625a78.421,78.421,0,0,1-22.125,10.5A85.532,85.532,0,0,1,599,21.75Zm195.5,0q-13.25-1-17.375-6.5T773,1.5a94.071,94.071,0,0,1,3.25-22.25q3.25-13,8.5-27.75t11.5-29.25q-2.75.25-8.625.75t-12,1.125q-6.125.625-9.875,1.375.75-7.75,5.875-12.125A31.748,31.748,0,0,1,784.875-93,82.8,82.8,0,0,1,802.5-95.25q6.5-18,13.375-35.125T829.75-161.75a34.748,34.748,0,0,0-3.5-.375q-2-.125-5.5-.125-15.25,0-23.625,3.25t-11.5,9.25q-3.125,6-3.125,14.75a48.038,48.038,0,0,0,1.25,11.375A76.047,76.047,0,0,0,787.5-112.5q-11.75-2-16.75-7.625a20.476,20.476,0,0,1-5-14.125q0-13,9.625-23t26-15.75q16.375-5.75,36.875-5.75a202.173,202.173,0,0,1,26.5,1.75,189.681,189.681,0,0,0,24.75,1.75,79.713,79.713,0,0,0,12-.875A125.639,125.639,0,0,0,914.75-179q-12,13.25-19.625,17.75a29.207,29.207,0,0,1-14.875,4.5,95.892,95.892,0,0,1-15.5-1.625,204.3,204.3,0,0,0-20.5-2.375q-3.25,8-7,18.5t-7.625,22.5q-3.875,12-7.875,24.75,13,1,23.5,2.25T868.5-91a32.17,32.17,0,0,1-6.125,6.375,19.718,19.718,0,0,1-8.25,3.375,108.784,108.784,0,0,1-14,1.5q-8.875.5-23.125.75-2,7.5-4.25,15.25T808.875-50.5q-1.625,5.5-2.125,6.75-7,24-9.625,39.125A156.968,156.968,0,0,0,794.5,21.75Zm141.25,0a48.413,48.413,0,0,1-26.5-7.625,52.987,52.987,0,0,1-19-21.625q-7-14-7-33.5a132.436,132.436,0,0,1,6-38.875,174.586,174.586,0,0,1,16.5-37.5,161.156,161.156,0,0,1,24.5-32,117.608,117.608,0,0,1,29.875-22.25,70.809,70.809,0,0,1,32.625-8.125,40.161,40.161,0,0,1,7.375,1q4.875,1,9.625,6-1.5-.25-3.375-.375t-3.875-.125q-13,0-26.25,8.125A110.52,110.52,0,0,0,951-143.25a169.537,169.537,0,0,0-21.375,31.125A186.343,186.343,0,0,0,914.75-76a129.374,129.374,0,0,0-5.5,36.5,81.23,81.23,0,0,0,3.5,24.25A39.143,39.143,0,0,0,924,2.875q7.75,6.875,20.5,6.875A44.607,44.607,0,0,0,970.25,1.5,87.314,87.314,0,0,0,992-20.625a157.012,157.012,0,0,0,16.75-31,200.127,200.127,0,0,0,10.75-35.25,170.985,170.985,0,0,0,3.75-34.625,132.272,132.272,0,0,0-1-15.625,57.916,57.916,0,0,0-3.375-14.375q-2.375-6-6.875-6-4.25,0-9.25,5.375A74.717,74.717,0,0,0,993-138.5a133.669,133.669,0,0,0-8.375,17.375A99.961,99.961,0,0,0,979.5-104.75q-8.5-1.75-12.125-5.5a12.489,12.489,0,0,1-3.625-9q0-6.75,4.75-15a76.652,76.652,0,0,1,12.375-15.875,82.508,82.508,0,0,1,16-12.625q8.375-5,15.625-5a15.225,15.225,0,0,1,12.125,5.375,36.955,36.955,0,0,1,7.125,13.875,101.213,101.213,0,0,1,3.5,18.125,173.734,173.734,0,0,1,1,17.875q0,25.5-6.25,46.625A140.9,140.9,0,0,1,1013.125-28.5,128.467,128.467,0,0,1,989.375-1a101.218,101.218,0,0,1-27,17A69.468,69.468,0,0,1,935.75,21.75Zm163.75,0a48.413,48.413,0,0,1-26.5-7.625A52.986,52.986,0,0,1,1054-7.5q-7-14-7-33.5a132.436,132.436,0,0,1,6-38.875,174.586,174.586,0,0,1,16.5-37.5,161.154,161.154,0,0,1,24.5-32,117.608,117.608,0,0,1,29.875-22.25,70.809,70.809,0,0,1,32.625-8.125,40.162,40.162,0,0,1,7.375,1q4.875,1,9.625,6-1.5-.25-3.375-.375t-3.875-.125q-13,0-26.25,8.125a110.519,110.519,0,0,0-25.25,21.875,169.537,169.537,0,0,0-21.375,31.125A186.34,186.34,0,0,0,1078.5-76a129.377,129.377,0,0,0-5.5,36.5,81.228,81.228,0,0,0,3.5,24.25,39.144,39.144,0,0,0,11.25,18.125q7.75,6.875,20.5,6.875A44.607,44.607,0,0,0,1134,1.5a87.314,87.314,0,0,0,21.75-22.125,157.008,157.008,0,0,0,16.75-31,200.132,200.132,0,0,0,10.75-35.25A170.985,170.985,0,0,0,1187-121.5a132.285,132.285,0,0,0-1-15.625,57.911,57.911,0,0,0-3.375-14.375q-2.375-6-6.875-6-4.25,0-9.25,5.375a74.711,74.711,0,0,0-9.75,13.625,133.669,133.669,0,0,0-8.375,17.375,99.967,99.967,0,0,0-5.125,16.375q-8.5-1.75-12.125-5.5a12.489,12.489,0,0,1-3.625-9q0-6.75,4.75-15a76.648,76.648,0,0,1,12.375-15.875,82.508,82.508,0,0,1,16-12.625q8.375-5,15.625-5a15.225,15.225,0,0,1,12.125,5.375A36.955,36.955,0,0,1,1195.5-148.5a101.213,101.213,0,0,1,3.5,18.125,173.734,173.734,0,0,1,1,17.875q0,25.5-6.25,46.625A140.893,140.893,0,0,1,1176.875-28.5,128.469,128.469,0,0,1,1153.125-1a101.218,101.218,0,0,1-27,17A69.468,69.468,0,0,1,1099.5,21.75Zm148.75,0a57.274,57.274,0,0,1-16.625-2.375Q1223.75,17,1218,9.25a161.2,161.2,0,0,1,3.625-17.5q2.875-11.5,7.125-26.125t9-30.125q4.75-15.5,9.375-29.625t8.25-24.75Q1259-129.5,1260.75-134.25q.75-2,2.5-6a58.245,58.245,0,0,1,4.5-8.25,29.313,29.313,0,0,1,6.375-7.125A12.413,12.413,0,0,1,1282-158.5q4.25,0,9.5,3.5-7.75,17.5-15.625,38.875t-15,44q-7.125,22.625-13,44T1238.25,11a23.639,23.639,0,0,0,5.625,1.125,66.944,66.944,0,0,0,6.875.375,64.92,64.92,0,0,0,31-7.875,105.631,105.631,0,0,0,27.125-21,151.139,151.139,0,0,0,21.625-29.5A157.254,157.254,0,0,0,1344.75-79.5a118.494,118.494,0,0,0,5-33q0-20.25-6.875-32.875a42.574,42.574,0,0,0-18.875-18.5q-12-5.875-27.5-5.875a70.259,70.259,0,0,0-29.25,5.875q-13,5.875-20.375,16a38.273,38.273,0,0,0-7.375,23.125,37.277,37.277,0,0,0,.5,5.875,26.949,26.949,0,0,0,1.75,6.125q-10.75,0-15.375-4.625a15.461,15.461,0,0,1-4.625-11.375q0-8.75,6.375-17.75a67.231,67.231,0,0,1,17.75-16.625,99.957,99.957,0,0,1,26.375-12.25,109.8,109.8,0,0,1,32.5-4.625q24.5,0,39.25,9.375a53.911,53.911,0,0,1,21.375,25.25A91.017,91.017,0,0,1,1372-110a123.48,123.48,0,0,1-6.875,41.125,137.293,137.293,0,0,1-19,36.125,143.188,143.188,0,0,1-28,28.75,130.6,130.6,0,0,1-33.75,19A101.553,101.553,0,0,1,1248.25,21.75Z" transform="translate(-1 180)" fill="#459952"/>
</svg>
